<svg xmlns="http://www.w3.org/2000/svg" xmlns:xlink="http://www.w3.org/1999/xlink" xml:space="preserve" version="1.1" style="shape-rendering:geometricPrecision;text-rendering:geometricPrecision;image-rendering:optimizeQuality;" viewBox="0 0 100 125" x="0px" y="0px" fill-rule="evenodd" clip-rule="evenodd"><defs><style type="text/css">
   
    .fil0 {fill:black;fill-rule:nonzero}
   
  </style></defs><g><path class="fil0" d="M73.94 89.68c11.21,0 20.31,-9.1 20.31,-20.31 0,-11.21 -9.1,-20.31 -20.31,-20.31 -11.21,0 -20.3,9.1 -20.3,20.31 0,11.07 8.94,20.31 20.3,20.31zm-1.66 -28.96c0,-2.19 3.33,-2.19 3.33,0l0 6.98 8.14 0c2.2,0 2.2,3.34 0,3.34l-8.14 0 0 9.31c0,2.19 -3.33,2.19 -3.33,0l0 -9.31 -8.15 0c-2.19,0 -2.19,-3.34 0,-3.34l8.15 0 0 -6.98zm-18.32 21.29l-41.1 0c-5.71,0 -10.44,-4.72 -10.44,-10.43l0 -54.15c0,-5.75 4.69,-10.44 10.44,-10.44l62.11 0c5.72,0 10.45,4.72 10.45,10.44l0 31.27c7.49,4.17 12.16,12.06 12.16,20.67 0,13.06 -10.59,23.64 -23.64,23.64 -8.14,0 -15.64,-4.15 -19.98,-11zm28.13 -34.84l0 -18.16 -29.12 17.76c-5.73,3.49 -12.53,3.43 -18.27,0.01l-28.95 -17.13 0 41.93c0,3.89 3.22,7.1 7.11,7.1l39.35 0c-1.23,-2.86 -1.91,-6 -1.91,-9.31 0,-13.05 10.59,-23.64 23.64,-23.64 2.86,0 5.61,0.51 8.15,1.44zm0 -22.05l0 -7.69c0,-3.89 -3.23,-7.11 -7.12,-7.11l-62.11 0c-3.91,0 -7.11,3.2 -7.11,7.11l0 8.36 30.64 18.13c4.66,2.78 10.19,2.84 14.84,0.01l30.86 -18.81z"/></g></svg>
