<svg xmlns="http://www.w3.org/2000/svg" xmlns:xlink="http://www.w3.org/1999/xlink" version="1.1" x="0px" y="0px" viewBox="0 0 1024 1280" style="enable-background:new 0 0 1024 1024;" xml:space="preserve"><g><g><g><path d="M884,452c-6.6,0-13.3,0-19.9,0c-18.1,0-36.1,0-54.2,0c-26.7,0-53.4,0-80.1,0c-32.6,0-65.2,0-97.7,0     c-35.5,0-71,0-106.6,0c-36,0-72,0-108.1,0c-33.6,0-67.2,0-100.8,0c-28.4,0-56.8,0-85.2,0c-20.4,0-40.8,0-61.2,0     c-9.7,0-19.3-0.1-29,0c-0.4,0-0.8,0-1.2,0c-15.4,0-31.5,6.7-42.4,17.6C87.2,480,79.3,497.1,80,512c0.7,15.5,5.8,31.6,17.6,42.4     c11.7,10.8,26.2,17.6,42.4,17.6c6.6,0,13.3,0,19.9,0c18.1,0,36.1,0,54.2,0c26.7,0,53.4,0,80.1,0c32.6,0,65.2,0,97.7,0     c35.5,0,71,0,106.6,0c36,0,72,0,108.1,0c33.6,0,67.2,0,100.8,0c28.4,0,56.8,0,85.2,0c20.4,0,40.8,0,61.2,0c9.7,0,19.3,0.1,29,0     c0.4,0,0.8,0,1.2,0c15.4,0,31.5-6.7,42.4-17.6c10.4-10.4,18.2-27.5,17.6-42.4c-0.7-15.5-5.8-31.6-17.6-42.4     C914.7,458.8,900.3,452,884,452L884,452z"/></g></g><g><g><path d="M884,712c-6.6,0-13.3,0-19.9,0c-18.1,0-36.1,0-54.2,0c-26.7,0-53.4,0-80.1,0c-32.6,0-65.2,0-97.7,0     c-35.5,0-71,0-106.6,0c-36,0-72,0-108.1,0c-33.6,0-67.2,0-100.8,0c-28.4,0-56.8,0-85.2,0c-20.4,0-40.8,0-61.2,0     c-9.7,0-19.3-0.1-29,0c-0.4,0-0.8,0-1.2,0c-15.4,0-31.5,6.7-42.4,17.6C87.2,740,79.3,757.1,80,772c0.7,15.5,5.8,31.6,17.6,42.4     c11.7,10.8,26.2,17.6,42.4,17.6c6.6,0,13.3,0,19.9,0c18.1,0,36.1,0,54.2,0c26.7,0,53.4,0,80.1,0c32.6,0,65.2,0,97.7,0     c35.5,0,71,0,106.6,0c36,0,72,0,108.1,0c33.6,0,67.2,0,100.8,0c28.4,0,56.8,0,85.2,0c20.4,0,40.8,0,61.2,0c9.7,0,19.3,0.1,29,0     c0.4,0,0.8,0,1.2,0c15.4,0,31.5-6.7,42.4-17.6c10.4-10.4,18.2-27.5,17.6-42.4c-0.7-15.5-5.8-31.6-17.6-42.4     C914.7,718.8,900.3,712,884,712L884,712z"/></g></g><g><g><path d="M884,192c-6.6,0-13.3,0-19.9,0c-18.1,0-36.1,0-54.2,0c-26.7,0-53.4,0-80.1,0c-32.6,0-65.2,0-97.7,0     c-35.5,0-71,0-106.6,0c-36,0-72,0-108.1,0c-33.6,0-67.2,0-100.8,0c-28.4,0-56.8,0-85.2,0c-20.4,0-40.8,0-61.2,0     c-9.7,0-19.3-0.1-29,0c-0.4,0-0.8,0-1.2,0c-15.4,0-31.5,6.7-42.4,17.6C87.2,220,79.3,237.1,80,252c0.7,15.5,5.8,31.6,17.6,42.4     c11.7,10.8,26.2,17.6,42.4,17.6c6.6,0,13.3,0,19.9,0c18.1,0,36.1,0,54.2,0c26.7,0,53.4,0,80.1,0c32.6,0,65.2,0,97.7,0     c35.5,0,71,0,106.6,0c36,0,72,0,108.1,0c33.6,0,67.2,0,100.8,0c28.4,0,56.8,0,85.2,0c20.4,0,40.8,0,61.2,0c9.7,0,19.3,0.1,29,0     c0.4,0,0.8,0,1.2,0c15.4,0,31.5-6.7,42.4-17.6c10.4-10.4,18.2-27.5,17.6-42.4c-0.7-15.5-5.8-31.6-17.6-42.4     C914.7,198.8,900.3,192,884,192L884,192z"/></g></g></g></svg>